<svg xmlns="http://www.w3.org/2000/svg" width="160" height="160" fill="none" viewBox="0 0 160 160"><path fill="#E83838" d="M53.758 10.925s-1.135-1.023-1.953-1.585a4.836 4.836 0 0 0-3.68-.767 4.93 4.93 0 0 0-3.211 2.178c-.767 1.186-.971 2.576-.706 3.875a5.051 5.051 0 0 0 2.148 3.18c2.852 1.881 10.132 6.554 10.132 6.554s4.878-7.157 6.749-10.01a5.057 5.057 0 0 0 .726-3.763 5.11 5.11 0 0 0-2.168-3.282 4.951 4.951 0 0 0-3.804-.746 4.808 4.808 0 0 0-3.077 2.147c-.532.828-1.176 2.219-1.176 2.219h.02Z"/><path fill="#F97878" d="M54.7 9.473s-1.136-1.023-1.954-1.585a4.836 4.836 0 0 0-3.68-.767 4.93 4.93 0 0 0-3.211 2.178 5.138 5.138 0 0 0-.706 3.875 5.05 5.05 0 0 0 2.147 3.18c2.853 1.881 10.133 6.554 10.133 6.554s4.877-7.157 6.748-10.01a5.057 5.057 0 0 0 .726-3.763 5.109 5.109 0 0 0-2.167-3.282 4.951 4.951 0 0 0-3.804-.746 4.845 4.845 0 0 0-3.078 2.147c-.531.828-1.175 2.219-1.175 2.219h.02Z"/><path fill="#E8E8F3" d="M63.12 155.85c17.364 0 31.44-2.995 31.44-6.69 0-3.695-14.076-6.69-31.44-6.69s-31.44 2.995-31.44 6.69c0 3.695 14.076 6.69 31.44 6.69Z"/><path fill="#01011B" d="M71.02 114.94a82.635 82.635 0 0 1 .09 30.56c-.15.79.34 1.58 1.21 1.58 1.99 0 3.99.02 5.98.03 1.61 0 1.61-2.49 0-2.5-1.99 0-3.99-.02-5.98-.03l1.21 1.58a85.867 85.867 0 0 0-.09-31.88c-.3-1.58-2.71-.91-2.41.66h-.01ZM58.12 115.17a82.588 82.588 0 0 1-9.33 29.11c-.4.73-.03 1.58.75 1.84 1.89.62 3.79 1.24 5.68 1.86 1.53.5 2.19-1.91.66-2.41-1.89-.62-3.79-1.24-5.68-1.86l.75 1.84c5.11-9.44 8.36-19.72 9.67-30.37.2-1.59-2.31-1.58-2.5 0v-.01Z"/><path fill="#fff" d="M94.23 39.277 28.402 42.6l3.517 69.661 65.826-3.323-3.517-69.661Z"/><path fill="#5C17AD" d="M76.51 46.06 79 92.52l12.89 6.34-2.59-54.37-12.78 1.57h-.01Z"/><path fill="#51317C" d="m91.59 98.61-12.55-6.14-53.25 7.54 12.78 6.3 53.47-7.08-.46-.62h.01Z"/><path fill="#FFC9A4" d="m36.82 108.26 56.75-7.93-2.89-57.37-56.74 8.1 2.88 57.2Z" opacity=".75"/><path fill="url(#PromFavoriteStore__a)" fill-opacity=".85" d="m36.43 110.03 55.46-67.5 3.28 62.26-58.74 5.24Z" opacity=".65"/><path fill="url(#PromFavoriteStore__b)" fill-opacity=".7" d="m41.04 113.72 55.6-67.51 3.28 62.26-58.87 5.25h-.01Z" opacity=".65"/><path fill="#8B08F9" d="m21.78 41.49 4.09 81.1 80.05-11.28-4.09-81.12-80.05 11.3Zm14 10.81 53.33-7.53 2.72 54.05-53.33 7.53-2.72-54.05Z"/><path fill="#A140FF" d="M21.77 41.53 9 35.15l79.95-11.33 12.88 6.38-80.06 11.33Z"/><path fill="#B87BFF" d="m9.01 35.14 12.76 6.34 4.1 81.12-12.79-6.42-4.07-81.04Z"/><path fill="#fff" d="M51.1 64.5s1.71-5.64 7.25-3.15c6.11 2.74 3.51 16.36-5.78 17.15-10.36.88-13.62-9.47-10.33-14.54 3.26-5.03 8.44-1.43 8.86.54Z"/><path fill="#EAEAEA" d="M61.51 69.47s-1.22 8.92-9.97 9.13c-7.66.18-10.01-5.92-10.38-8.36 0 0 5.57 2.74 9.95 2.48 4.38-.26 8.1-1.84 10.4-3.25Z"/><path fill="#01011B" d="M52.33 64.47s1.07-3.3 4.54-1.85c3.82 1.61 2.04 9.89-3.78 10.3-6.12.43-8.37-5.8-6.3-8.77 2.04-2.95 5.28-.85 5.55.32h-.01Z"/><path fill="#fff" d="M49.42 66.37c-.76 0-1.38-.59-1.39-1.33 0-.74.6-1.35 1.37-1.36.76 0 1.38.59 1.39 1.33 0 .74-.61 1.35-1.37 1.36ZM47.52 67.99a.79.79 0 0 1 .17-1.11c.35-.27.85-.2 1.11.14.26.35.19.84-.16 1.11-.35.27-.85.2-1.11-.14h-.01ZM74.59 60.9s.86-5.83 6.7-4.19c6.45 1.81 5.88 15.66-3.18 17.82-10.11 2.4-14.87-7.36-12.36-12.86 2.48-5.45 8.13-2.67 8.84-.77Z"/><path fill="#EAEAEA" d="M85.62 64.28s.11 9.01-8.51 10.5c-7.55 1.31-10.78-4.37-11.5-6.73 0 0 5.92 1.89 10.21.98 4.29-.9 7.74-3.01 9.81-4.75h-.01Z"/><path fill="#01011B" d="M75.18 60.22s.57-3.42 4.21-2.5c4.02 1.02 3.48 9.48-2.22 10.75-5.99 1.33-9.13-4.5-7.53-7.74 1.59-3.21 5.1-1.61 5.53-.51h.01Z"/><path fill="#fff" d="M71.01 61.42c-.12-.73.4-1.43 1.15-1.55.75-.12 1.46.38 1.57 1.11.12.73-.4 1.43-1.15 1.55-.75.12-1.46-.38-1.57-1.11ZM70.93 64.41a.79.79 0 0 1 0-1.12c.31-.32.81-.33 1.12-.02.31.3.31.81 0 1.12-.31.32-.81.33-1.12.02Z"/><path fill="#01011B" d="M64.87 87.39c-2.6-.03-4.68-2.6-4.64-5.73.04-3.13 2.19-5.64 4.79-5.6 2.6.04 4.68 2.6 4.64 5.73-.04 3.13-2.19 5.64-4.79 5.6Z"/><path fill="#FF5252" d="M64.76 81.57c1.81-.38 3.55.54 4.58 2.19-.58 1.8-1.91 3.2-3.6 3.55-1.81.38-3.55-.54-4.58-2.19.58-1.8 1.91-3.2 3.6-3.55Z"/><path fill="#F97878" d="M82.73 84.4c-1.38.23-2.68-.7-2.91-2.08-.23-1.38.7-2.68 2.08-2.91 1.38-.23 2.68.7 2.91 2.08.23 1.38-.7 2.68-2.08 2.91ZM49.3 88.67c-1.38.23-2.68-.7-2.91-2.08-.23-1.38.7-2.68 2.08-2.91 1.38-.23 2.68.7 2.91 2.08.23 1.38-.7 2.68-2.08 2.91Z"/><path fill="#01011B" d="M62.34 98.86c-.13-.09-.25-.17-.37-.27l.25.2c-.5-.39-.95-.84-1.34-1.34l.2.25c-.16-.21-.31-.43-.45-.66-.17-.27-.44-.49-.75-.57-.31-.08-.7-.05-.96.13s-.5.43-.57.75c-.07.32-.05.67.13.96a8.997 8.997 0 0 0 2.61 2.71c.26.18.67.21.96.13.29-.08.6-.3.75-.57.15-.29.23-.64.13-.96-.1-.32-.29-.56-.57-.75l-.02-.01Z"/><path fill="#01011B" d="M62.8 96.85c-.67.37-1.3.99-1.39 1.87-.03.28 0 .58.13.83.14.27.53.57.78.7 1.27.65 2.74.32 3.75-.6.32-.29.61-.69.74-1.14.13-.45-.47-1.56-.47-1.56s-.68-.41-1.12-.56c-.54-.19-1.64.02-2.43.46h.01Z"/><path fill="#01011B" d="M62.17 95.77c-1.48.83-2.57 2.66-1.74 4.34.38.76 1.19 1.25 1.96 1.52s1.56.26 2.32.11c.76-.15 1.46-.54 2.06-1.03.66-.54 1.24-1.36 1.3-2.22.04-.62-.22-1.23-.47-1.78-.05-.12-.11-.24-.17-.36-.15-.27-.4-.43-.65-.58-.65-.37-1.33-.7-2.09-.69-.87.02-1.75.29-2.51.7-.58.31-.81 1.16-.45 1.71.38.59 1.09.78 1.71.45.09-.05.17-.09.26-.13.09-.04.05-.02-.1.04.04-.02.08-.03.12-.05.17-.06.35-.12.53-.16.08-.02.16-.03.24-.05.28-.06-.29.02-.02 0h.46c.12 0-.33-.09-.1 0 .11.04.25.15-.03-.03.12.08.27.13.4.2.18.09.35.19.52.29l-.45-.45c.07.13.12.26.19.39.06.11-.08-.19-.07-.17.01.03.02.06.03.08.03.07.05.14.08.21.04.13.07.25.1.38.04.14 0-.31-.02-.17v.07c0 .05-.02.15.01-.08l.02-.12-.03.08s-.08.2 0 .01c.07-.17 0 0-.03.05s-.16.2-.16.26c0-.01.16-.18.06-.08-.03.03-.06.06-.08.09-.07.07-.13.14-.21.2-.03.03-.24.2-.1.09.14-.11-.12.08-.18.11l-.21.12c-.04.02-.07.04-.11.06-.09.05-.16.02.07-.03-.17.03-.33.12-.5.16l-.16.03c-.13.03.13-.01.13-.01-.08 0-.16.02-.24.02h-.24c-.05 0-.11 0-.16-.01-.18-.01.04-.01.09.01-.06-.03-.17-.03-.24-.05-.1-.02-.19-.06-.28-.09-.13-.04.09.04.1.05-.02-.02-.09-.04-.12-.06-.09-.04-.16-.1-.25-.15-.11-.06.09.07.09.08-.02-.03-.07-.05-.09-.08-.06-.05-.11-.12-.17-.17-.12-.11.13.21.06.08-.05-.1.04.11.04.11s-.03-.11-.03-.12c-.06-.13 0 .22 0 .08v-.13c0-.02.02-.3 0-.09-.02.19.03-.1.05-.16.01-.04.07-.15 0 0-.09.18.01-.03.04-.07.04-.08.1-.15.14-.23.07-.11-.07.1-.08.1.02 0 .12-.13.13-.14.06-.06.13-.12.2-.18.03-.02.14-.11 0 0-.17.13.04-.02.06-.04.08-.06.17-.11.26-.16.57-.32.81-1.15.45-1.71-.36-.56-1.1-.79-1.71-.45h-.03Z"/><path fill="#01011B" d="M62.24 96.09c-.15-.21-.28-.44-.39-.69l.13.3c-.06-.16-.12-.31-.14-.48l.04.33c-.01-.09-.01-.18 0-.27l-.04.33c.01-.07.03-.13.05-.19l-.13.3c.02-.05.05-.1.09-.15l-.2.25s.06-.07.1-.1l-.25.2s.08-.05.13-.07l-.3.13.12-.03-.33.04h.19l-.33-.04c.07.01.14.03.21.06l-.3-.13c.09.04.17.09.25.15l-.25-.2c.23.18.43.4.61.63l-.2-.25c.06.08.12.17.17.25.15.27.45.49.75.57.17.05.33.06.5.02.17 0 .32-.06.46-.15.27-.17.5-.43.57-.75.07-.32.04-.66-.13-.96-.12-.22-.29-.42-.45-.61-.1-.12-.21-.23-.31-.33-.17-.17-.37-.33-.57-.46-.31-.19-.63-.27-.99-.31-.12-.01-.23 0-.35.02-.23.03-.41.09-.63.2-.03.02-.06.03-.08.05-.1.07-.21.15-.3.23-.06.06-.11.13-.15.19-.05.07-.11.13-.15.21-.17.31-.24.6-.26.94-.01.13.01.25.03.38.02.14.04.28.08.41.08.26.19.51.32.75.08.16.18.32.29.47.08.15.19.26.32.35.12.11.26.19.43.22.17.05.33.06.5.02.17 0 .32-.06.46-.15.27-.17.5-.43.57-.75.07-.32.07-.69-.13-.96l-.01.03Z"/><path fill="#01011B" d="M63.68 94.89c-.04-.08-.08-.16-.12-.25l.13.3c-.04-.1-.08-.21-.09-.32l.04.33v-.17l-.04.33s.02-.09.04-.14l-.13.3s.04-.08.07-.12l-.2.25.09-.09-.25.2s.09-.06.14-.08l-.3.13c.06-.02.12-.04.18-.05l-.33.04h.21l-.33-.04c.08.01.16.04.24.07l-.3-.13c.12.05.23.12.33.19l-.25-.2c.12.09.22.19.31.31l-.2-.25c.09.12.16.24.22.38l-.13-.3s.01.03.02.05c.04.16.11.3.22.43.09.14.21.24.35.32.14.09.3.14.46.15.17.04.33.03.5-.02.3-.1.59-.29.75-.57.16-.28.24-.65.13-.96-.07-.2-.15-.4-.26-.58-.11-.18-.24-.35-.38-.5-.14-.15-.32-.28-.49-.41-.1-.07-.21-.13-.32-.18-.15-.06-.29-.14-.45-.18-.16-.04-.34-.06-.5-.07-.16-.01-.33.02-.49.05-.11.02-.2.06-.3.11-.1.05-.19.07-.27.13-.12.09-.26.18-.36.29-.1.11-.2.23-.26.37-.05.11-.11.23-.15.35-.02.08-.03.17-.04.25-.03.2-.03.31 0 .5.02.12.03.24.07.36.07.23.18.46.29.68.14.27.46.49.75.57.17.05.33.06.5.02.17 0 .32-.06.46-.15.27-.17.5-.43.57-.75.08-.34.04-.66-.13-.96v.01Z"/><path fill="#01011B" d="M65.46 95.14c0-.24-.05-.48-.13-.7-.05-.12-.1-.24-.11-.37l.04.33v-.16l-.04.33.03-.1-.13.3s.02-.05.04-.07l-.2.25s.03-.04.05-.05l-.25.2s.05-.04.08-.05l-.3.13.12-.03-.33.04h.15l-.33-.04c.1.01.19.04.28.08l-.3-.13c.15.07.29.15.43.25l-.25-.2c.14.11.26.23.37.37l-.2-.25c.11.14.2.29.27.45l-.13-.3c.04.08.07.17.09.26.08.3.3.59.57.75.14.09.3.14.46.15.17.04.33.03.5-.02.3-.1.59-.29.75-.57.16-.28.22-.63.13-.96-.06-.22-.15-.43-.25-.63-.05-.11-.12-.22-.19-.32-.13-.18-.27-.37-.43-.52-.16-.15-.34-.29-.53-.42-.1-.07-.21-.13-.33-.18-.15-.06-.29-.14-.45-.18-.16-.04-.33-.06-.49-.07-.16-.01-.32.02-.47.05-.03 0-.06.01-.08.02-.12.04-.26.09-.36.16-.18.11-.32.24-.44.4-.12.16-.23.33-.29.55-.04.16-.07.35-.06.52.01.17.03.35.08.51.05.16.13.31.16.48l-.04-.33v.09c0 .33.13.65.37.88.22.22.57.38.88.37.31-.01.66-.12.88-.37.22-.25.37-.55.37-.88l.01-.02ZM72.22 98.37a8.51 8.51 0 0 0 1.27-3.21c.06-.34.05-.65-.13-.96-.15-.26-.45-.51-.75-.57-.32-.07-.68-.06-.96.13-.26.17-.52.43-.57.75-.1.59-.27 1.16-.5 1.71l.13-.3c-.18.42-.4.82-.65 1.21-.17.26-.21.67-.13.96.08.29.3.6.57.75.63.33 1.32.14 1.71-.45l.01-.02Z"/><path fill="#01011B" d="M68.96 95.3c.77.09 1.58.42 1.99 1.21.13.25.22.54.19.82-.03.31-.28.73-.46.95-.93 1.09-2.42 1.33-3.7.86-.4-.15-.83-.4-1.11-.77-.28-.37-.16-1.62-.16-1.62s.47-.63.82-.94c.43-.38 1.53-.6 2.42-.5l.01-.01Z"/><path fill="#01011B" d="M68.96 96.55s-.29-.05-.15-.02c.05.01.1.02.14.03.07.02.14.03.22.05.06.02.2.1.25.08 0 0-.24-.11-.13-.05.04.02.09.04.13.07.08.04.15.09.23.14.18.12-.17-.16-.01 0 .06.06.12.13.19.19.09.1-.08-.09-.08-.1 0 0 .1.16.11.17l.06.12c-.02.01-.06-.23-.04-.08l.04.14c-.07 0 .01-.26-.01-.05 0 0 .06-.26.02-.14-.01.03-.02.07-.03.11-.06.16-.01.04 0 0 .08-.19-.02.03-.04.07-.04.07-.08.14-.12.2-.07.11-.1.04.07-.09-.03.02-.06.07-.08.09-.06.06-.11.12-.17.17-.04.04-.08.07-.12.11-.12.11.2-.13.06-.05-.15.09-.29.18-.44.26-.2.1.26-.09-.03 0-.09.03-.17.06-.26.08l-.27.06c-.13.03.14-.02.14-.02-.04 0-.08 0-.12.01-.2.01-.39 0-.59 0-.23-.02.25.05.02 0l-.27-.06c-.08-.02-.15-.04-.23-.07-.04-.01-.08-.03-.11-.04-.25-.09.17.09.03.01-.07-.04-.15-.08-.22-.12l-.15-.09c-.12-.07.08.05.08.06 0-.03-.16-.16-.19-.18-.07-.07-.1-.19.06.09-.08-.13.08.18.07.18-.02 0-.05-.18-.05-.2-.05-.17.02.33 0 .07 0-.15-.02-.3-.02-.45 0-.19 0-.37.03-.55l-.17.63s.03-.03.03-.05c.1-.17-.18.23-.09.11.09-.12.18-.23.28-.34l.3-.33c.17-.17.03 0-.07.04.06-.02.13-.08.18-.11.23-.14-.17.06-.05.02.08-.03.16-.06.25-.08.03 0 .47-.11.48-.1-.18.02-.22.03-.12.02.04 0 .08 0 .13-.01.09 0 .17-.01.26-.01.2 0 .39 0 .59.02.65.07 1.28-.62 1.25-1.25-.03-.74-.55-1.18-1.25-1.25-.7-.07-1.49 0-2.17.23-.68.23-1.19.63-1.65 1.19-.17.2-.35.41-.49.63-.16.25-.17.55-.19.84-.03.51-.03 1.06.12 1.55.27.89 1.11 1.45 1.93 1.79.63.26 1.36.38 2.04.32 1.63-.14 3.18-1.07 3.73-2.66.35-1-.11-2.19-.87-2.88-.7-.63-1.53-.9-2.44-1.01-.29-.04-.68.17-.88.37-.22.22-.38.57-.37.88.01.31.12.66.37.88.26.24.54.32.88.37l-.03-.01Z"/><path fill="#01011B" d="M71.63 94.89c.06-.26.1-.53.12-.79.02-.17.02-.34.02-.51 0-.17-.04-.35-.06-.53a.902.902 0 0 0-.06-.22c-.06-.15-.12-.32-.2-.46-.02-.03-.04-.05-.05-.08-.08-.11-.16-.22-.25-.31-.11-.11-.24-.21-.37-.29a.3.3 0 0 0-.08-.04c-.12-.06-.25-.12-.37-.15-.08-.02-.17-.03-.25-.04-.09-.01-.17-.03-.26-.02-.13 0-.28.03-.41.05-.03 0-.07.02-.1.03-.32.12-.63.28-.86.54-.16.18-.31.38-.41.6-.12.25-.22.5-.31.76-.1.28-.13.55-.17.84 0 .17.03.33.11.48.05.15.14.29.26.4.22.22.57.38.88.37.31-.01.66-.12.88-.37l.2-.25c.11-.19.17-.41.17-.63v-.03c-.01.11-.03.22-.04.33.04-.27.13-.52.24-.77l-.13.3c.07-.16.14-.31.24-.44l-.2.25c.05-.07.11-.12.17-.17l-.25.2s.1-.07.16-.09l-.3.13c.06-.02.11-.04.17-.05l-.33.04h.12l-.33-.04c.05 0 .1.02.15.04l-.3-.13s.09.05.14.08l-.25-.2s.08.07.12.12l-.2-.25c.05.06.08.13.12.2l-.13-.3c.04.1.06.21.08.31l-.04-.33c.03.25.02.51-.02.76l.04-.33c-.02.12-.04.24-.07.35-.08.32-.04.67.13.96.15.26.45.51.75.57.32.07.68.06.96-.13.27-.17.5-.43.57-.75v-.01Z"/><path fill="#01011B" d="M69.89 93.99c.03-.32.02-.65-.07-.95-.04-.14-.11-.29-.17-.42a.21.21 0 0 0-.04-.06c-.07-.1-.15-.21-.24-.3l-.05-.05a3.4 3.4 0 0 0-.3-.23l-.06-.03c-.12-.06-.24-.11-.37-.15-.33-.1-.63-.07-.96-.02-.11.02-.2.07-.3.11-.1.04-.21.08-.3.15-.17.12-.35.25-.49.42-.14.17-.29.35-.39.55-.22.44-.36.92-.34 1.42 0 .33.13.65.37.88.11.12.25.21.4.26.15.08.31.11.48.11.32-.01.66-.12.88-.37.22-.25.37-.55.37-.88 0-.09 0-.18.01-.27l-.04.33c.02-.15.06-.3.12-.44l-.13.3c.05-.12.12-.24.2-.35l-.2.25c.07-.09.14-.17.23-.23l-.25.2c.06-.05.12-.08.19-.11l-.3.13c.06-.02.12-.04.19-.05l-.33.04h.17l-.33-.04s.09.02.14.04l-.3-.13s.08.04.12.07l-.25-.2.09.09-.2-.25s.05.08.07.13l-.13-.3c.03.07.04.14.05.21l-.04-.33c.02.16.01.32 0 .48 0 .17.03.33.11.48.05.15.14.29.26.4.11.12.25.21.4.26.15.08.31.11.48.11.32-.01.66-.12.88-.37l.2-.25c.11-.19.17-.41.17-.63v-.01Z"/><path fill="#01011B" d="M68.21 93.91a.75.75 0 0 1-.04-.16l.04.33c-.02-.14 0-.29-.02-.43-.03-.34-.08-.61-.24-.91-.01-.02-.03-.04-.04-.07-.07-.1-.14-.2-.23-.29a2.09 2.09 0 0 0-.29-.23.405.405 0 0 0-.09-.05c-.11-.05-.23-.11-.35-.14-.12-.03-.27-.05-.39-.05-.13 0-.26.03-.39.05-.04 0-.07.01-.11.03-.32.11-.56.26-.81.48-.17.15-.3.33-.43.51a3.045 3.045 0 0 0-.58 1.66c-.01.15-.01.29 0 .44 0 .17.03.33.11.48.05.15.14.29.26.4.22.22.57.38.88.37.31-.01.66-.12.88-.37l.2-.25c.11-.19.17-.41.17-.63-.02-.16-.02-.33 0-.49l-.04.33c.03-.18.07-.36.14-.53l-.13.3c.07-.16.16-.31.26-.45l-.2.25c.08-.11.18-.21.29-.29l-.25.2c.06-.04.11-.08.18-.1l-.3.13s.09-.03.14-.04l-.33.04h.08l-.33-.04s.05.01.08.02l-.3-.13s.06.03.09.05l-.25-.2.07.07-.2-.25s.04.06.05.09l-.13-.3c.03.07.04.13.05.2l-.04-.33c.01.11 0 .22.01.33l.03.32c.02.11.02.22.06.33.04.16.11.3.22.43.09.14.21.24.35.32.14.09.3.14.46.15.17.04.33.03.5-.02.3-.1.59-.29.75-.57.16-.28.24-.65.13-.96l.03-.03ZM28.63 88.74c-1.2 8.06 1.21 16.73 7.82 21.87 6.06 4.71 14.71 5.71 21.13 1.11 3.35-2.4 5.83-5.95 6.5-10.05.26-1.57-2.15-2.25-2.41-.66-1.05 6.37-6.9 11.15-13.31 11.25-6.95.11-13.17-4.52-15.86-10.79-1.62-3.76-2.06-8.02-1.46-12.06.23-1.57-2.17-2.25-2.41-.66v-.01ZM96.01 79.69c2.52 6.45 1.83 13.9-2.02 19.69-3.71 5.57-10.68 9.02-17 5.6-3.34-1.81-5.88-4.79-7.9-7.95-.86-1.35-3.03-.1-2.16 1.26 3.97 6.22 10.44 12.04 18.37 10.3 7.93-1.74 12.94-9.18 14.29-16.56.8-4.36.44-8.87-1.18-13-.58-1.48-3-.84-2.41.66h.01Z"/><path fill="#E8E8F3" d="M146.95 31.92c1.51-2.56 2.39-5.53 2.39-8.72 0-9.49-7.69-17.18-17.18-17.18-3.77 0-7.24 1.23-10.07 3.28a5.05 5.05 0 0 0-3.9-1.83c-2.22 0-4.11 1.43-4.79 3.43-3.32-3.63-8.09-5.91-13.39-5.91-10.04 0-18.19 8.14-18.19 18.19 0 6.85 3.79 12.8 9.37 15.9-.62 1.41-.97 2.96-.97 4.6 0 6.32 5.12 11.45 11.45 11.45 1.43 0 2.8-.27 4.06-.75a5.073 5.073 0 0 0 5.05 4.58c1.04 0 2.01-.31 2.81-.85 2.53 1.42 5.43 2.24 8.54 2.24 8.54 0 15.63-6.14 17.14-14.24a8.077 8.077 0 0 0 11.52-7.31c0-2.91-1.54-5.45-3.85-6.87l.01-.01Z"/><path fill="#fff" d="M142.64 33.07c1.34-2.26 2.12-4.89 2.12-7.71 0-8.39-6.8-15.2-15.2-15.2-3.33 0-6.4 1.08-8.91 2.9a4.466 4.466 0 0 0-3.45-1.62 4.48 4.48 0 0 0-4.24 3.03c-2.94-3.21-7.15-5.23-11.85-5.23-8.89 0-16.09 7.2-16.09 16.09 0 6.06 3.35 11.32 8.29 14.07a10.06 10.06 0 0 0-.86 4.07c0 5.59 4.53 10.13 10.13 10.13 1.27 0 2.47-.24 3.59-.67a4.495 4.495 0 0 0 6.96 3.3c2.23 1.26 4.81 1.98 7.55 1.98 7.55 0 13.83-5.43 15.17-12.59.92.43 1.95.69 3.04.69 3.95 0 7.15-3.2 7.15-7.15 0-2.57-1.36-4.82-3.4-6.08v-.01Z"/><path fill="#8B08F9" fill-rule="evenodd" d="M107.62 25v2c0 1.103.897 2 2 2s2-.897 2-2v-2h-4Zm16 2c0 1.103-.897 2-2 2s-2-.897-2-2v-2h4v2Zm-14 7v-3c1.2 0 2.267-.542 3-1.382.733.84 1.8 1.382 3 1.382s2.267-.542 3-1.382c.733.84 1.8 1.382 3 1.382v3h-12Zm12 5v-3h-12v3h12Zm-4-14h-4v2c0 1.103.897 2 2 2s2-.897 2-2v-2Zm-12-2v4c0 1.474.811 2.75 2 3.444V41h16V30.444c1.189-.694 2-1.97 2-3.444v-4h-20Z" clip-rule="evenodd"/><path fill="#E8E8F3" d="M79.14 42.67a2.95 2.95 0 1 0 0-5.9 2.95 2.95 0 0 0 0 5.9Z"/><path fill="#fff" d="M79.63 41.48a2.47 2.47 0 1 0 0-4.94 2.47 2.47 0 0 0 0 4.94Z"/><defs><linearGradient id="PromFavoriteStore__a" x1="34.806" x2="93.222" y1="77.712" y2="74.763" gradientUnits="userSpaceOnUse"><stop offset=".48" stop-color="#fff" stop-opacity=".4"/><stop offset=".61" stop-color="#fff" stop-opacity=".29"/><stop offset=".89" stop-color="#fff" stop-opacity=".02"/><stop offset=".92" stop-color="#fff" stop-opacity="0"/></linearGradient><linearGradient id="PromFavoriteStore__b" x1="39.419" x2="97.964" y1="81.404" y2="78.449" gradientUnits="userSpaceOnUse"><stop offset=".48" stop-color="#fff" stop-opacity=".4"/><stop offset=".61" stop-color="#fff" stop-opacity=".29"/><stop offset=".89" stop-color="#fff" stop-opacity=".02"/><stop offset=".92" stop-color="#fff" stop-opacity="0"/></linearGradient></defs></svg>